<svg width="167" height="228" viewBox="0 0 167 228" fill="none" xmlns="http://www.w3.org/2000/svg">
<path d="M28 205.295L28.3603 202.232L30.3421 201.512L32.3238 200.971L33.0444 199.71L32.3238 197.909L31.7833 195.927L33.5849 193.585H35.7468L37.5484 194.306L38.9896 193.585L39.5301 190.883L40.0706 189.261L42.7729 188.36L44.2142 189.261L45.4753 190.883H47.457L49.9792 188L53.2221 188.36L54.303 191.783L56.4649 192.864L59.7078 191.783L61.8697 193.585L61.3292 197.909L62.4101 198.99L66.1934 199.71L67.0942 202.593L66.1934 204.214L64.572 205.295V207.637L66.1934 208.718L67.4545 209.979L67.0942 213.042L65.4728 213.763L63.3109 214.303L62.4101 216.105L63.3109 218.086L63.4911 220.068L61.8697 221.87H59.7078L58.0863 221.329L56.4649 222.41L55.9244 225.112L55.384 226.193L53.2221 226.914L51.2403 226.193L49.6189 224.572H47.9975L46.9166 226.193L45.115 227.274L42.4126 226.914L41.5118 225.112V223.131L39.5301 222.41L37.5484 223.131L35.5666 223.491L33.5849 221.87V219.708L34.3055 218.086L33.0444 216.105H31.0627L29.4413 215.564L28.5405 213.042L29.4413 211.24L31.0627 209.619V208.178L29.4413 207.097L28 205.295Z" fill="#3D7D3C"/>
<circle cx="47.6372" cy="207.457" r="9.54836" fill="white"/>
<path d="M32 143.229L32.7339 136.991L36.7706 135.523L40.8073 134.422L42.2752 131.853L40.8073 128.183L39.7064 124.147L43.3761 119.376H47.7798L51.4495 120.844L54.3853 119.376L55.4862 113.872L56.5872 110.569L62.0917 108.734L65.0275 110.569L67.5963 113.872H71.633L76.7706 108L83.3761 108.734L85.578 115.706L89.9817 117.908L96.5872 115.706L100.991 119.376L99.8899 128.183L102.092 130.385L109.798 131.853L111.633 137.725L109.798 141.028L106.495 143.229V148L109.798 150.202L112.367 152.771L111.633 159.009L108.33 160.477L103.927 161.578L102.092 165.248L103.927 169.284L104.294 173.321L100.991 176.991H96.5872L93.2844 175.89L89.9817 178.092L88.8807 183.596L87.7798 185.798L83.3761 187.266L79.3394 185.798L76.0367 182.495H72.7339L70.5321 185.798L66.8624 188L61.3578 187.266L59.5229 183.596V179.56L55.4862 178.092L51.4495 179.56L47.4128 180.294L43.3761 176.991V172.587L44.844 169.284L42.2752 165.248H38.2385L34.9358 164.147L33.1009 159.009L34.9358 155.339L38.2385 152.037V149.101L34.9358 146.899L32 143.229Z" fill="#E09F1F"/>
<circle cx="72" cy="147.633" r="19.4495" fill="white"/>
<path d="M99 90.3999L99.6125 85.1937L102.981 83.9687L106.35 83.0499L107.575 80.9062L106.35 77.8437L105.431 74.4749L108.494 70.4937H112.169L115.231 71.7187L117.681 70.4937L118.6 65.9L119.519 63.1437L124.112 61.6125L126.562 63.1437L128.706 65.9H132.075L136.362 61L141.875 61.6125L143.712 67.4312L147.387 69.2687L152.9 67.4312L156.575 70.4937L155.656 77.8437L157.494 79.6812L163.925 80.9062L165.456 85.8062L163.925 88.5624L161.169 90.3999V94.3811L163.925 96.2186L166.068 98.3624L165.456 103.569L162.7 104.794L159.025 105.712L157.494 108.775L159.025 112.144L159.331 115.512L156.575 118.575H152.9L150.144 117.656L147.387 119.494L146.469 124.087L145.55 125.925L141.875 127.15L138.506 125.925L135.75 123.169H132.994L131.156 125.925L128.094 127.762L123.5 127.15L121.969 124.087V120.719L118.6 119.494L115.231 120.719L111.862 121.331L108.494 118.575V114.9L109.719 112.144L107.575 108.775H104.206L101.45 107.856L99.9187 103.569L101.45 100.506L104.206 97.7499V95.2999L101.45 93.4624L99 90.3999Z" fill="#328A8C"/>
<circle cx="132.381" cy="94.0749" r="16.2312" fill="white"/>
<path d="M0 48L1 39.5L6.5 37.5L12 36L14 32.5L12 27.5L10.5 22L15.5 15.5H21.5L26.5 17.5L30.5 15.5L32 8L33.5 3.5L41 1L45 3.5L48.5 8H54L61 0L70 1L73 10.5L79 13.5L88 10.5L94 15.5L92.5 27.5L95.5 30.5L106 32.5L108.5 40.5L106 45L101.5 48V54.5L106 57.5L109.5 61L108.5 69.5L104 71.5L98 73L95.5 78L98 83.5L98.5 89L94 94H88L83.5 92.5L79 95.5L77.5 103L76 106L70 108L64.5 106L60 101.5H55.5L52.5 106L47.5 109L40 108L37.5 103V97.5L32 95.5L26.5 97.5L21 98.5L15.5 94V88L17.5 83.5L14 78H8.5L4 76.5L1.5 69.5L4 64.5L8.5 60V56L4 53L0 48Z" fill="#D43E21"/>
<circle cx="54.5" cy="54" r="26.5" fill="white"/>
</svg>
