<svg width="305" height="228" viewBox="0 0 305 228" fill="none" xmlns="http://www.w3.org/2000/svg">
<path d="M28 205.295L28.3603 202.232L30.3421 201.512L32.3238 200.971L33.0444 199.71L32.3238 197.909L31.7833 195.927L33.5849 193.585H35.7468L37.5484 194.306L38.9896 193.585L39.5301 190.883L40.0706 189.261L42.7729 188.36L44.2142 189.261L45.4753 190.883H47.457L49.9792 188L53.2221 188.36L54.303 191.783L56.4649 192.864L59.7078 191.783L61.8697 193.585L61.3292 197.909L62.4101 198.99L66.1934 199.71L67.0942 202.593L66.1934 204.214L64.572 205.295V207.637L66.1934 208.718L67.4545 209.979L67.0942 213.042L65.4728 213.763L63.3109 214.303L62.4101 216.105L63.3109 218.086L63.4911 220.068L61.8697 221.87H59.7078L58.0863 221.329L56.4649 222.41L55.9244 225.112L55.384 226.193L53.2221 226.914L51.2403 226.193L49.6189 224.572H47.9975L46.9166 226.193L45.115 227.274L42.4126 226.914L41.5118 225.112V223.131L39.5301 222.41L37.5484 223.131L35.5666 223.491L33.5849 221.87V219.708L34.3055 218.086L33.0444 216.105H31.0627L29.4413 215.564L28.5405 213.042L29.4413 211.24L31.0627 209.619V208.178L29.4413 207.097L28 205.295Z" fill="#3D7D3C"/>
<circle cx="47.6372" cy="207.457" r="9.54836" fill="white"/>
<path d="M32 143.229L32.7339 136.991L36.7706 135.523L40.8073 134.422L42.2752 131.853L40.8073 128.183L39.7064 124.147L43.3761 119.376H47.7798L51.4495 120.844L54.3853 119.376L55.4862 113.872L56.5872 110.569L62.0917 108.734L65.0275 110.569L67.5963 113.872H71.633L76.7706 108L83.3761 108.734L85.578 115.706L89.9817 117.908L96.5872 115.706L100.991 119.376L99.8899 128.183L102.092 130.385L109.798 131.853L111.633 137.725L109.798 141.028L106.495 143.229V148L109.798 150.202L112.367 152.771L111.633 159.009L108.33 160.477L103.927 161.578L102.092 165.248L103.927 169.284L104.294 173.321L100.991 176.991H96.5872L93.2844 175.89L89.9817 178.092L88.8807 183.596L87.7798 185.798L83.3761 187.266L79.3395 185.798L76.0367 182.495H72.7339L70.5321 185.798L66.8624 188L61.3578 187.266L59.5229 183.596V179.56L55.4862 178.092L51.4495 179.56L47.4128 180.294L43.3761 176.991V172.587L44.844 169.284L42.2752 165.248H38.2385L34.9358 164.147L33.1009 159.009L34.9358 155.339L38.2385 152.037V149.101L34.9358 146.899L32 143.229Z" fill="#E09F1F"/>
<circle cx="72" cy="147.633" r="19.4495" fill="white"/>
<path d="M99 90.3999L99.6125 85.1937L102.981 83.9687L106.35 83.0499L107.575 80.9062L106.35 77.8437L105.431 74.4749L108.494 70.4937H112.169L115.231 71.7187L117.681 70.4937L118.6 65.9L119.519 63.1437L124.112 61.6125L126.562 63.1437L128.706 65.9H132.075L136.362 61L141.875 61.6125L143.712 67.4312L147.387 69.2687L152.9 67.4312L156.575 70.4937L155.656 77.8437L157.494 79.6812L163.925 80.9062L165.456 85.8062L163.925 88.5624L161.169 90.3999V94.3811L163.925 96.2186L166.068 98.3624L165.456 103.569L162.7 104.794L159.025 105.712L157.494 108.775L159.025 112.144L159.331 115.512L156.575 118.575H152.9L150.144 117.656L147.387 119.494L146.469 124.087L145.55 125.925L141.875 127.15L138.506 125.925L135.75 123.169H132.994L131.156 125.925L128.094 127.762L123.5 127.15L121.969 124.087V120.719L118.6 119.494L115.231 120.719L111.862 121.331L108.494 118.575V114.9L109.719 112.144L107.575 108.775H104.206L101.45 107.856L99.9187 103.569L101.45 100.506L104.206 97.7499V95.2999L101.45 93.4624L99 90.3999Z" fill="#328A8C"/>
<circle cx="132.381" cy="94.0749" r="16.2312" fill="white"/>
<path d="M0 48L1 39.5L6.5 37.5L12 36L14 32.5L12 27.5L10.5 22L15.5 15.5H21.5L26.5 17.5L30.5 15.5L32 8L33.5 3.5L41 1L45 3.5L48.5 8H54L61 0L70 1L73 10.5L79 13.5L88 10.5L94 15.5L92.5 27.5L95.5 30.5L106 32.5L108.5 40.5L106 45L101.5 48V54.5L106 57.5L109.5 61L108.5 69.5L104 71.5L98 73L95.5 78L98 83.5L98.5 89L94 94H88L83.5 92.5L79 95.5L77.5 103L76 106L70 108L64.5 106L60 101.5H55.5L52.5 106L47.5 109L40 108L37.5 103V97.5L32 95.5L26.5 97.5L21 98.5L15.5 94V88L17.5 83.5L14 78H8.5L4 76.5L1.5 69.5L4 64.5L8.5 60V56L4 53L0 48Z" fill="#D43E21"/>
<circle cx="54.5" cy="54" r="26.5" fill="white"/>
<path d="M260.289 153.481L245.577 128L260.289 102.519H289.711L304.423 128L289.711 153.481H260.289Z" fill="white" stroke="#C0C0C0"/>
<path d="M207.289 176.481L192.577 151L207.289 125.519H236.711L251.423 151L236.711 176.481H207.289Z" fill="white" stroke="#C0C0C0"/>
<path d="M256.289 212.481L241.577 187L256.289 161.519H285.711L300.423 187L285.711 212.481H256.289Z" fill="white" stroke="#C0C0C0"/>
<path d="M137.051 169H129.142L141.193 134.091H150.705L162.739 169H154.83L146.085 142.068H145.812L137.051 169ZM136.557 155.278H155.239V161.04H136.557V155.278ZM166.94 134.091H176.043L185.656 157.545H186.065L195.679 134.091H204.781V169H197.622V146.278H197.332L188.298 168.83H183.423L174.389 146.193H174.099V169H166.94V134.091ZM229.8 144.131C229.663 142.756 229.078 141.687 228.044 140.926C227.01 140.165 225.607 139.784 223.834 139.784C222.629 139.784 221.612 139.955 220.783 140.295C219.953 140.625 219.317 141.085 218.874 141.676C218.442 142.267 218.226 142.938 218.226 143.688C218.203 144.312 218.334 144.858 218.618 145.324C218.913 145.79 219.317 146.193 219.828 146.534C220.339 146.864 220.93 147.153 221.601 147.403C222.271 147.642 222.987 147.847 223.749 148.017L226.885 148.767C228.408 149.108 229.805 149.562 231.078 150.131C232.351 150.699 233.453 151.398 234.385 152.227C235.317 153.057 236.038 154.034 236.55 155.159C237.072 156.284 237.339 157.574 237.351 159.028C237.339 161.165 236.794 163.017 235.714 164.585C234.646 166.142 233.101 167.352 231.078 168.216C229.067 169.068 226.641 169.494 223.8 169.494C220.982 169.494 218.527 169.062 216.436 168.199C214.357 167.335 212.732 166.057 211.561 164.364C210.402 162.659 209.794 160.551 209.737 158.04H216.879C216.959 159.21 217.294 160.187 217.885 160.972C218.487 161.744 219.288 162.33 220.288 162.727C221.3 163.114 222.442 163.307 223.714 163.307C224.964 163.307 226.05 163.125 226.97 162.761C227.902 162.398 228.624 161.892 229.135 161.244C229.646 160.597 229.902 159.852 229.902 159.011C229.902 158.227 229.669 157.568 229.203 157.034C228.749 156.5 228.078 156.045 227.192 155.67C226.317 155.295 225.243 154.955 223.97 154.648L220.169 153.693C217.226 152.977 214.902 151.858 213.197 150.335C211.493 148.812 210.646 146.761 210.658 144.182C210.646 142.068 211.209 140.222 212.345 138.642C213.493 137.062 215.067 135.83 217.067 134.943C219.067 134.057 221.339 133.614 223.885 133.614C226.476 133.614 228.737 134.057 230.669 134.943C232.612 135.83 234.124 137.062 235.203 138.642C236.283 140.222 236.839 142.051 236.874 144.131H229.8ZM242.315 169V134.091H265.838V140.176H249.696V148.494H264.628V154.58H249.696V162.915H265.906V169H242.315ZM271.706 169V134.091H285.479C288.115 134.091 290.365 134.562 292.229 135.506C294.104 136.437 295.53 137.761 296.507 139.477C297.496 141.182 297.99 143.187 297.99 145.494C297.99 147.812 297.49 149.807 296.49 151.477C295.49 153.136 294.041 154.409 292.143 155.295C290.257 156.182 287.973 156.625 285.291 156.625H276.07V150.693H284.098C285.507 150.693 286.678 150.5 287.609 150.114C288.541 149.727 289.234 149.148 289.689 148.375C290.155 147.602 290.388 146.642 290.388 145.494C290.388 144.335 290.155 143.358 289.689 142.562C289.234 141.767 288.536 141.165 287.592 140.756C286.661 140.335 285.484 140.125 284.064 140.125H279.087V169H271.706ZM290.558 153.114L299.234 169H291.087L282.598 153.114H290.558Z" fill="#999999"/>
<path d="M95.0043 192V181.818H101.626V183.364H96.8487V186.129H101.283V187.675H96.8487V190.454H101.666V192H95.0043ZM105.228 187.526V192H103.429V184.364H105.149V185.661H105.238C105.414 185.234 105.694 184.894 106.078 184.642C106.466 184.39 106.945 184.264 107.515 184.264C108.042 184.264 108.501 184.377 108.892 184.602C109.287 184.828 109.592 185.154 109.807 185.582C110.026 186.009 110.134 186.528 110.13 187.138V192H108.331V187.416C108.331 186.906 108.198 186.506 107.933 186.218C107.671 185.93 107.308 185.786 106.844 185.786C106.529 185.786 106.249 185.855 106.004 185.994C105.762 186.13 105.571 186.327 105.432 186.586C105.296 186.844 105.228 187.158 105.228 187.526ZM115.281 195.023C114.635 195.023 114.079 194.935 113.615 194.759C113.151 194.587 112.779 194.355 112.497 194.063C112.215 193.772 112.02 193.448 111.91 193.094L113.531 192.701C113.604 192.85 113.71 192.998 113.849 193.143C113.988 193.293 114.176 193.415 114.411 193.511C114.65 193.611 114.949 193.661 115.311 193.661C115.821 193.661 116.244 193.536 116.578 193.288C116.913 193.042 117.081 192.638 117.081 192.075V190.628H116.991C116.898 190.813 116.762 191.004 116.583 191.2C116.408 191.395 116.174 191.559 115.882 191.692C115.594 191.824 115.231 191.891 114.794 191.891C114.207 191.891 113.675 191.753 113.198 191.478C112.724 191.2 112.346 190.785 112.064 190.235C111.786 189.682 111.647 188.989 111.647 188.157C111.647 187.318 111.786 186.611 112.064 186.034C112.346 185.454 112.725 185.015 113.203 184.717C113.68 184.415 114.212 184.264 114.799 184.264C115.246 184.264 115.614 184.34 115.902 184.493C116.194 184.642 116.426 184.823 116.598 185.035C116.771 185.244 116.902 185.441 116.991 185.626H117.091V184.364H118.865V192.124C118.865 192.777 118.71 193.317 118.398 193.745C118.087 194.173 117.661 194.492 117.12 194.705C116.58 194.917 115.967 195.023 115.281 195.023ZM115.296 190.479C115.677 190.479 116.002 190.386 116.27 190.2C116.539 190.015 116.743 189.748 116.882 189.4C117.021 189.052 117.091 188.634 117.091 188.147C117.091 187.666 117.021 187.246 116.882 186.884C116.746 186.523 116.544 186.243 116.275 186.044C116.01 185.842 115.684 185.741 115.296 185.741C114.895 185.741 114.56 185.845 114.292 186.054C114.023 186.263 113.821 186.549 113.685 186.914C113.549 187.275 113.481 187.686 113.481 188.147C113.481 188.614 113.549 189.024 113.685 189.375C113.824 189.723 114.028 189.995 114.297 190.19C114.568 190.383 114.901 190.479 115.296 190.479ZM120.71 192V184.364H122.51V192H120.71ZM121.615 183.28C121.33 183.28 121.084 183.185 120.879 182.996C120.673 182.804 120.571 182.574 120.571 182.305C120.571 182.034 120.673 181.803 120.879 181.614C121.084 181.422 121.33 181.326 121.615 181.326C121.903 181.326 122.148 181.422 122.35 181.614C122.556 181.803 122.659 182.034 122.659 182.305C122.659 182.574 122.556 182.804 122.35 182.996C122.148 183.185 121.903 183.28 121.615 183.28ZM126.16 187.526V192H124.36V184.364H126.08V185.661H126.17C126.346 185.234 126.626 184.894 127.01 184.642C127.398 184.39 127.877 184.264 128.447 184.264C128.974 184.264 129.433 184.377 129.824 184.602C130.218 184.828 130.523 185.154 130.739 185.582C130.958 186.009 131.065 186.528 131.062 187.138V192H129.262V187.416C129.262 186.906 129.13 186.506 128.865 186.218C128.603 185.93 128.24 185.786 127.776 185.786C127.461 185.786 127.181 185.855 126.936 185.994C126.694 186.13 126.503 186.327 126.364 186.586C126.228 186.844 126.16 187.158 126.16 187.526ZM136.272 192.149C135.507 192.149 134.845 191.99 134.289 191.672C133.735 191.35 133.309 190.896 133.011 190.31C132.713 189.72 132.563 189.025 132.563 188.227C132.563 187.441 132.713 186.752 133.011 186.158C133.312 185.562 133.733 185.098 134.274 184.766C134.814 184.432 135.449 184.264 136.178 184.264C136.648 184.264 137.093 184.34 137.51 184.493C137.931 184.642 138.302 184.874 138.624 185.189C138.949 185.504 139.204 185.905 139.389 186.392C139.575 186.876 139.668 187.453 139.668 188.122V188.674H133.409V187.461H137.943C137.939 187.116 137.865 186.81 137.719 186.541C137.573 186.269 137.369 186.056 137.107 185.9C136.849 185.744 136.547 185.666 136.203 185.666C135.835 185.666 135.512 185.756 135.233 185.935C134.955 186.11 134.738 186.342 134.582 186.631C134.429 186.916 134.352 187.229 134.348 187.57V188.629C134.348 189.073 134.429 189.455 134.592 189.773C134.754 190.088 134.981 190.33 135.273 190.499C135.565 190.664 135.906 190.747 136.297 190.747C136.559 190.747 136.796 190.711 137.008 190.638C137.22 190.562 137.404 190.451 137.56 190.305C137.716 190.159 137.833 189.978 137.913 189.763L139.593 189.952C139.487 190.396 139.285 190.784 138.987 191.115C138.692 191.443 138.314 191.698 137.853 191.881C137.392 192.06 136.865 192.149 136.272 192.149ZM144.571 192.149C143.805 192.149 143.144 191.99 142.587 191.672C142.034 191.35 141.608 190.896 141.31 190.31C141.011 189.72 140.862 189.025 140.862 188.227C140.862 187.441 141.011 186.752 141.31 186.158C141.611 185.562 142.032 185.098 142.572 184.766C143.113 184.432 143.747 184.264 144.477 184.264C144.947 184.264 145.391 184.34 145.809 184.493C146.23 184.642 146.601 184.874 146.923 185.189C147.247 185.504 147.503 185.905 147.688 186.392C147.874 186.876 147.967 187.453 147.967 188.122V188.674H141.707V187.461H146.241C146.238 187.116 146.164 186.81 146.018 186.541C145.872 186.269 145.668 186.056 145.406 185.9C145.148 185.744 144.846 185.666 144.501 185.666C144.134 185.666 143.81 185.756 143.532 185.935C143.254 186.11 143.036 186.342 142.881 186.631C142.728 186.916 142.65 187.229 142.647 187.57V188.629C142.647 189.073 142.728 189.455 142.891 189.773C143.053 190.088 143.28 190.33 143.572 190.499C143.863 190.664 144.205 190.747 144.596 190.747C144.858 190.747 145.095 190.711 145.307 190.638C145.519 190.562 145.703 190.451 145.859 190.305C146.014 190.159 146.132 189.978 146.212 189.763L147.892 189.952C147.786 190.396 147.584 190.784 147.286 191.115C146.991 191.443 146.613 191.698 146.152 191.881C145.691 192.06 145.164 192.149 144.571 192.149ZM149.489 192V184.364H151.234V185.636H151.314C151.453 185.196 151.692 184.856 152.03 184.617C152.371 184.375 152.76 184.254 153.198 184.254C153.297 184.254 153.408 184.259 153.531 184.269C153.657 184.276 153.761 184.287 153.844 184.304V185.96C153.768 185.933 153.647 185.91 153.481 185.89C153.319 185.867 153.162 185.855 153.009 185.855C152.681 185.855 152.386 185.926 152.124 186.069C151.866 186.208 151.662 186.402 151.513 186.651C151.363 186.899 151.289 187.186 151.289 187.511V192H149.489ZM155.04 192V184.364H156.84V192H155.04ZM155.945 183.28C155.66 183.28 155.414 183.185 155.209 182.996C155.003 182.804 154.901 182.574 154.901 182.305C154.901 182.034 155.003 181.803 155.209 181.614C155.414 181.422 155.66 181.326 155.945 181.326C156.233 181.326 156.478 181.422 156.681 181.614C156.886 181.803 156.989 182.034 156.989 182.305C156.989 182.574 156.886 182.804 156.681 182.996C156.478 183.185 156.233 183.28 155.945 183.28ZM160.49 187.526V192H158.69V184.364H160.411V185.661H160.5C160.676 185.234 160.956 184.894 161.34 184.642C161.728 184.39 162.207 184.264 162.777 184.264C163.304 184.264 163.763 184.377 164.154 184.602C164.549 184.828 164.853 185.154 165.069 185.582C165.288 186.009 165.395 186.528 165.392 187.138V192H163.592V187.416C163.592 186.906 163.46 186.506 163.195 186.218C162.933 185.93 162.57 185.786 162.106 185.786C161.791 185.786 161.511 185.855 161.266 185.994C161.024 186.13 160.833 186.327 160.694 186.586C160.558 186.844 160.49 187.158 160.49 187.526ZM170.543 195.023C169.896 195.023 169.341 194.935 168.877 194.759C168.413 194.587 168.04 194.355 167.759 194.063C167.477 193.772 167.281 193.448 167.172 193.094L168.793 192.701C168.866 192.85 168.972 192.998 169.111 193.143C169.25 193.293 169.437 193.415 169.673 193.511C169.911 193.611 170.211 193.661 170.572 193.661C171.083 193.661 171.505 193.536 171.84 193.288C172.175 193.042 172.342 192.638 172.342 192.075V190.628H172.253C172.16 190.813 172.024 191.004 171.845 191.2C171.67 191.395 171.436 191.559 171.144 191.692C170.856 191.824 170.493 191.891 170.055 191.891C169.469 191.891 168.937 191.753 168.46 191.478C167.986 191.2 167.608 190.785 167.326 190.235C167.048 189.682 166.908 188.989 166.908 188.157C166.908 187.318 167.048 186.611 167.326 186.034C167.608 185.454 167.987 185.015 168.464 184.717C168.942 184.415 169.474 184.264 170.06 184.264C170.508 184.264 170.876 184.34 171.164 184.493C171.456 184.642 171.688 184.823 171.86 185.035C172.032 185.244 172.163 185.441 172.253 185.626H172.352V184.364H174.127V192.124C174.127 192.777 173.971 193.317 173.66 193.745C173.348 194.173 172.922 194.492 172.382 194.705C171.842 194.917 171.229 195.023 170.543 195.023ZM170.558 190.479C170.939 190.479 171.263 190.386 171.532 190.2C171.8 190.015 172.004 189.748 172.143 189.4C172.283 189.052 172.352 188.634 172.352 188.147C172.352 187.666 172.283 187.246 172.143 186.884C172.008 186.523 171.805 186.243 171.537 186.044C171.272 185.842 170.945 185.741 170.558 185.741C170.156 185.741 169.822 185.845 169.553 186.054C169.285 186.263 169.083 186.549 168.947 186.914C168.811 187.275 168.743 187.686 168.743 188.147C168.743 188.614 168.811 189.024 168.947 189.375C169.086 189.723 169.29 189.995 169.558 190.19C169.83 190.383 170.163 190.479 170.558 190.479ZM185.057 184.617C185.011 184.183 184.815 183.845 184.471 183.603C184.129 183.361 183.685 183.24 183.138 183.24C182.754 183.24 182.424 183.298 182.149 183.414C181.874 183.53 181.663 183.687 181.517 183.886C181.372 184.085 181.297 184.312 181.294 184.567C181.294 184.78 181.342 184.964 181.438 185.119C181.537 185.275 181.672 185.408 181.841 185.517C182.01 185.623 182.197 185.713 182.402 185.786C182.608 185.858 182.815 185.92 183.024 185.969L183.978 186.208C184.363 186.298 184.732 186.419 185.087 186.571C185.445 186.723 185.765 186.916 186.047 187.148C186.332 187.38 186.557 187.66 186.723 187.988C186.888 188.316 186.971 188.701 186.971 189.141C186.971 189.738 186.819 190.263 186.514 190.717C186.209 191.168 185.768 191.521 185.191 191.776C184.618 192.028 183.924 192.154 183.108 192.154C182.316 192.154 181.628 192.031 181.045 191.786C180.465 191.541 180.011 191.183 179.683 190.712C179.358 190.242 179.182 189.668 179.156 188.992H180.971C180.997 189.347 181.106 189.642 181.299 189.877C181.491 190.112 181.741 190.288 182.049 190.404C182.361 190.52 182.709 190.578 183.093 190.578C183.494 190.578 183.846 190.518 184.147 190.399C184.452 190.277 184.691 190.107 184.863 189.892C185.036 189.673 185.123 189.418 185.127 189.126C185.123 188.861 185.046 188.643 184.893 188.47C184.741 188.295 184.527 188.149 184.252 188.033C183.98 187.913 183.662 187.807 183.297 187.714L182.139 187.416C181.3 187.201 180.637 186.874 180.15 186.437C179.666 185.996 179.424 185.411 179.424 184.682C179.424 184.082 179.587 183.557 179.912 183.106C180.24 182.655 180.685 182.305 181.249 182.057C181.812 181.805 182.45 181.679 183.163 181.679C183.886 181.679 184.519 181.805 185.062 182.057C185.609 182.305 186.038 182.652 186.35 183.096C186.661 183.537 186.822 184.044 186.832 184.617H185.057ZM191.917 192.149C191.151 192.149 190.49 191.99 189.933 191.672C189.38 191.35 188.954 190.896 188.655 190.31C188.357 189.72 188.208 189.025 188.208 188.227C188.208 187.441 188.357 186.752 188.655 186.158C188.957 185.562 189.378 185.098 189.918 184.766C190.458 184.432 191.093 184.264 191.822 184.264C192.293 184.264 192.737 184.34 193.155 184.493C193.576 184.642 193.947 184.874 194.268 185.189C194.593 185.504 194.848 185.905 195.034 186.392C195.22 186.876 195.312 187.453 195.312 188.122V188.674H189.053V187.461H193.587C193.584 187.116 193.509 186.81 193.363 186.541C193.218 186.269 193.014 186.056 192.752 185.9C192.493 185.744 192.192 185.666 191.847 185.666C191.479 185.666 191.156 185.756 190.878 185.935C190.599 186.11 190.382 186.342 190.226 186.631C190.074 186.916 189.996 187.229 189.993 187.57V188.629C189.993 189.073 190.074 189.455 190.236 189.773C190.399 190.088 190.626 190.33 190.917 190.499C191.209 190.664 191.55 190.747 191.942 190.747C192.203 190.747 192.44 190.711 192.653 190.638C192.865 190.562 193.049 190.451 193.204 190.305C193.36 190.159 193.478 189.978 193.557 189.763L195.238 189.952C195.132 190.396 194.93 190.784 194.631 191.115C194.336 191.443 193.958 191.698 193.498 191.881C193.037 192.06 192.51 192.149 191.917 192.149ZM196.835 192V184.364H198.58V185.636H198.659C198.799 185.196 199.037 184.856 199.375 184.617C199.717 184.375 200.106 184.254 200.544 184.254C200.643 184.254 200.754 184.259 200.877 184.269C201.003 184.276 201.107 184.287 201.19 184.304V185.96C201.114 185.933 200.993 185.91 200.827 185.89C200.665 185.867 200.507 185.855 200.355 185.855C200.027 185.855 199.732 185.926 199.47 186.069C199.211 186.208 199.007 186.402 198.858 186.651C198.709 186.899 198.635 187.186 198.635 187.511V192H196.835ZM209.439 184.364L206.72 192H204.731L202.012 184.364H203.931L205.686 190.036H205.765L207.525 184.364H209.439ZM210.684 192V184.364H212.484V192H210.684ZM211.589 183.28C211.304 183.28 211.059 183.185 210.854 182.996C210.648 182.804 210.545 182.574 210.545 182.305C210.545 182.034 210.648 181.803 210.854 181.614C211.059 181.422 211.304 181.326 211.589 181.326C211.878 181.326 212.123 181.422 212.325 181.614C212.531 181.803 212.633 182.034 212.633 182.305C212.633 182.574 212.531 182.804 212.325 182.996C212.123 183.185 211.878 183.28 211.589 183.28ZM217.666 192.149C216.904 192.149 216.249 191.982 215.702 191.647C215.158 191.312 214.739 190.85 214.444 190.26C214.153 189.667 214.007 188.984 214.007 188.212C214.007 187.436 214.156 186.752 214.454 186.158C214.752 185.562 215.173 185.098 215.717 184.766C216.264 184.432 216.91 184.264 217.656 184.264C218.276 184.264 218.824 184.379 219.301 184.607C219.782 184.833 220.165 185.152 220.45 185.567C220.735 185.978 220.897 186.458 220.937 187.009H219.217C219.147 186.641 218.982 186.334 218.72 186.089C218.461 185.84 218.115 185.716 217.681 185.716C217.313 185.716 216.99 185.815 216.711 186.014C216.433 186.21 216.216 186.491 216.06 186.859C215.908 187.227 215.831 187.668 215.831 188.182C215.831 188.702 215.908 189.15 216.06 189.524C216.212 189.895 216.426 190.182 216.701 190.384C216.98 190.583 217.306 190.683 217.681 190.683C217.946 190.683 218.183 190.633 218.392 190.533C218.604 190.431 218.781 190.283 218.924 190.091C219.066 189.899 219.164 189.665 219.217 189.39H220.937C220.894 189.93 220.735 190.409 220.46 190.827C220.185 191.241 219.81 191.566 219.336 191.801C218.862 192.033 218.306 192.149 217.666 192.149ZM225.796 192.149C225.03 192.149 224.369 191.99 223.812 191.672C223.258 191.35 222.833 190.896 222.534 190.31C222.236 189.72 222.087 189.025 222.087 188.227C222.087 187.441 222.236 186.752 222.534 186.158C222.836 185.562 223.257 185.098 223.797 184.766C224.337 184.432 224.972 184.264 225.701 184.264C226.172 184.264 226.616 184.34 227.034 184.493C227.454 184.642 227.826 184.874 228.147 185.189C228.472 185.504 228.727 185.905 228.913 186.392C229.098 186.876 229.191 187.453 229.191 188.122V188.674H222.932V187.461H227.466C227.463 187.116 227.388 186.81 227.242 186.541C227.097 186.269 226.893 186.056 226.631 185.9C226.372 185.744 226.071 185.666 225.726 185.666C225.358 185.666 225.035 185.756 224.757 185.935C224.478 186.11 224.261 186.342 224.105 186.631C223.953 186.916 223.875 187.229 223.872 187.57V188.629C223.872 189.073 223.953 189.455 224.115 189.773C224.278 190.088 224.505 190.33 224.796 190.499C225.088 190.664 225.429 190.747 225.82 190.747C226.082 190.747 226.319 190.711 226.531 190.638C226.744 190.562 226.927 190.451 227.083 190.305C227.239 190.159 227.357 189.978 227.436 189.763L229.117 189.952C229.011 190.396 228.808 190.784 228.51 191.115C228.215 191.443 227.837 191.698 227.377 191.881C226.916 192.06 226.389 192.149 225.796 192.149ZM236.749 186.382L235.109 186.561C235.062 186.395 234.981 186.24 234.865 186.094C234.752 185.948 234.6 185.83 234.408 185.741C234.215 185.651 233.98 185.607 233.702 185.607C233.327 185.607 233.012 185.688 232.757 185.85C232.505 186.013 232.381 186.223 232.384 186.482C232.381 186.704 232.462 186.884 232.628 187.023C232.797 187.163 233.075 187.277 233.463 187.366L234.766 187.645C235.488 187.801 236.025 188.048 236.376 188.386C236.731 188.724 236.91 189.166 236.913 189.713C236.91 190.194 236.769 190.618 236.491 190.986C236.216 191.35 235.833 191.635 235.342 191.841C234.852 192.046 234.288 192.149 233.652 192.149C232.717 192.149 231.965 191.954 231.395 191.562C230.825 191.168 230.485 190.62 230.376 189.917L232.131 189.748C232.21 190.093 232.379 190.353 232.638 190.528C232.896 190.704 233.233 190.792 233.647 190.792C234.075 190.792 234.418 190.704 234.676 190.528C234.938 190.353 235.069 190.136 235.069 189.877C235.069 189.658 234.984 189.478 234.815 189.335C234.65 189.193 234.391 189.083 234.04 189.007L232.737 188.734C232.005 188.581 231.463 188.324 231.112 187.963C230.76 187.598 230.586 187.138 230.589 186.581C230.586 186.11 230.714 185.703 230.972 185.358C231.234 185.01 231.597 184.741 232.061 184.553C232.528 184.36 233.067 184.264 233.677 184.264C234.572 184.264 235.276 184.455 235.79 184.836C236.307 185.217 236.627 185.732 236.749 186.382Z" fill="#999999"/>
</svg>
